 <svg
      viewBox="0 0 3126 1156"
      version="1.1"
      xmlns="http://www.w3.org/2000/svg"
      xmlnsXlink="http://www.w3.org/1999/xlink"
      xmlSpace="preserve"
    >
      <g>
        <g transform="matrix(1,0,0,1,320.378,175.399)">
          <path
            d="M0,508.074L-147.244,508.074L-147.244,0L0,0C166.985,0 254.684,110.999 254.684,254.684C254.684,392.22 160.836,508.074 0,508.074M0,660.173C254.684,660.173 431.054,499.337 431.054,254.684C431.054,9.708 254.684,-152.099 0,-152.099L-320.378,-152.099L-320.378,660.173L0,660.173Z"
            fill="#fff"
          />
        </g>
        <g transform="matrix(1,0,0,1,-937.106,-2242.24)">
          <path
            d="M1919.92,2489.48L1765.24,2489.48L1765.24,3077.81L1919.92,3077.81L1919.92,2489.48ZM1841.93,2426.05C1893.06,2426.05 1934.48,2384.63 1934.48,2333.5C1934.48,2282.37 1893.06,2242.24 1841.93,2242.24C1792.09,2242.24 1749.38,2282.37 1749.38,2333.5C1749.38,2384.63 1792.09,2426.05 1841.93,2426.05"
            fill="#fff"
          />
        </g>
        <g transform="matrix(1,0,0,1,1361.12,223.618)">
          <path
            d="M0,658.878C-181.871,658.878 -329.439,511.31 -329.439,329.439C-329.439,147.892 -180.253,0 -21.035,0C101.615,0 210.025,81.227 298.696,187.049C272.807,236.562 106.793,437.526 -11.326,472.152L-65.37,376.687C13.592,340.118 87.376,285.751 126.209,221.999C90.289,177.987 21.035,144.008 -21.035,144.008C-102.585,144.008 -185.754,226.53 -185.754,329.439C-185.754,432.024 -102.909,515.193 0,515.193C178.635,515.193 266.981,345.296 385.101,200.641L485.098,300.637C358.564,452.089 244.976,658.878 0,658.878"
             fill="#81C039"
          />
        </g>
        <g transform="matrix(1,0,0,1,1940.07,428.465)">
          <path
            d="M0,522.313C54.044,559.529 113.589,583.476 167.309,583.153C218.439,583.153 264.717,562.118 298.373,528.462C331.705,494.806 352.416,448.206 352.416,397.075L352.416,396.751C299.344,432.672 235.592,454.031 166.661,454.031C56.31,454.031 -88.993,376.04 -161.807,299.991L-73.137,187.697C-17.151,241.417 88.023,310.346 166.661,310.346C269.571,310.346 352.416,227.501 352.416,124.592C352.416,22.006 269.247,-60.839 166.661,-60.839C80.904,-60.839 14.887,-18.77 -44.658,41.099L-145.626,-59.221C-67.635,-141.419 27.508,-204.848 166.661,-204.848C348.532,-204.848 496.101,-57.279 496.101,124.592L496.101,396.751C496.424,487.687 459.856,570.209 400.311,629.753C340.766,689.622 258.568,726.837 167.633,727.161C83.493,727.161 -4.207,693.505 -81.227,640.756L0,522.313Z"
            fill="#fff"
          />
        </g>
        <g transform="matrix(1,0,0,1,2814.15,370.215)">
          <path
            d="M0,342.383C-96.438,342.383 -149.833,263.098 -149.833,170.544C-149.833,79.285 -96.438,-0.001 0,-0.001C96.113,-0.001 150.804,79.285 150.804,170.544C150.804,263.098 96.113,342.383 0,342.383M0,479.919C194.815,479.919 311.64,338.823 311.64,170.544C311.64,3.883 194.815,-137.536 0,-137.536C-193.845,-137.536 -310.67,3.883 -310.67,170.544C-310.67,338.823 -193.845,479.919 0,479.919"
            fill="#fff"
          />
        </g>
        <g transform="matrix(-0.620232,0.784418,0.784418,0.620232,1672.48,574.519)">
          <path
            d="M-116.991,-50.476L24.927,-50.476L24.691,-56.44L-117.482,-56.639L-116.991,-50.476Z"
            fill="#C3E3A0"
          />
        </g>
        <g transform="matrix(-0.620529,0.784183,0.784183,0.620529,1664.03,567.408)">
          <path
            d="M-117.508,-50.901L24.865,-50.901L24.631,-56.863L-117.742,-56.863L-117.508,-50.901Z"
            fill="#B0D980"
          />
        </g>
        <g transform="matrix(-0.619423,0.785057,0.785057,0.619423,1655.84,559.886)">
          <path
            d="M-117.632,-51.063L24.996,-51.063L24.753,-57.026L-117.874,-57.025L-117.632,-51.063Z"
            fill="#B0D980"
          />
        </g>
        <g transform="matrix(-0.619427,0.785054,0.785054,0.619427,1647.3,552.18)">
          <path
            d="M-117.504,-50.8L25.123,-50.8L24.881,-56.762L-118.001,-56.963L-117.504,-50.8Z"
            fill="#9CD061"
          />
        </g>
        <g transform="matrix(-0.618323,0.785924,0.785924,0.618323,1639.24,544.918)">
          <path
            d="M-117.755,-51.225L25.127,-51.225L24.877,-57.186L-118.005,-57.186L-117.755,-51.225Z"
            fill="#9CD061"
          />
        </g>
        <g transform="matrix(-0.619123,0.785294,0.785294,0.619123,1681.24,582.467)">
          <path
            d="M-117.241,-50.9L24.931,-50.9L24.433,-57.064L-117.486,-56.862L-117.241,-50.9Z"
            fill="#D7ECBF"
          />
        </g>
        <g transform="matrix(-0.709391,-0.704816,-0.704816,0.709391,1812.12,388.7)">
          <path
            d="M-118.87,55.192L22.548,55.192L22.986,49.241L-118.661,49.013L-118.87,55.192Z"
            fill="#9CD061"
          />
        </g>
        <g transform="matrix(-0.710526,-0.703671,-0.703671,0.710526,1819.22,380.055)">
          <path
            d="M-119.418,55.078L22.229,55.078L22.658,49.126L-118.989,49.126L-119.418,55.078Z"
            fill="#B0D980"
          />
        </g>
        <g transform="matrix(-0.709383,-0.704823,-0.704823,0.709383,1827.17,371.482)">
          <path
            d="M-119.26,55.353L22.615,55.353L23.053,49.403L-119.051,49.173L-119.26,55.353Z"
            fill="#B0D980"
          />
        </g>
        <g transform="matrix(-0.710515,-0.703682,-0.703682,0.710515,1834.27,362.836)">
          <path
            d="M-119.809,55.239L22.297,55.239L22.725,49.288L-119.38,49.287L-119.809,55.239Z"
            fill="#C3E3A0"
          />
        </g>
        <g transform="matrix(-0.710515,-0.703682,-0.703682,0.710515,1842.1,354.259)">
          <path
            d="M-119.646,55.63L22.459,55.63L22.885,49.221L-119.448,49.451L-119.646,55.63Z"
            fill="#D7ECBF"
          />
        </g>
        <g transform="matrix(-0.709391,-0.704816,-0.704816,0.709391,1804.4,397)">
          <path
            d="M-119.146,55.078L22.271,55.078L22.71,49.127L-118.707,49.126L-119.146,55.078Z"
            fill="#9CD061"
          />
        </g>
        <g transform="matrix(0.620236,-0.784415,-0.784415,-0.620236,1795.78,705.906)">
          <path
            d="M-24.437,56.64L117.481,56.64L117.245,50.677L-24.927,50.476L-24.437,56.64Z"
            fill="#999EA6"
          />
        </g>
        <g transform="matrix(0.619127,-0.785291,-0.785291,-0.619127,1804.54,713.531)">
          <path
            d="M-24.687,56.863L117.485,56.863L117.241,50.901L-24.931,50.901L-24.687,56.863Z"
            fill="#818791"
          />
        </g>
        <g transform="matrix(0.61802,-0.786162,-0.786162,-0.61802,1813.18,721.217)">
          <path
            d="M-24.81,57.025L117.617,57.025L117.364,51.062L-25.063,51.063L-24.81,57.025Z"
            fill="#646B78"
          />
        </g>
        <g transform="matrix(0.619423,-0.785057,-0.785057,-0.619423,1821.41,728.873)">
          <path
            d="M-24.627,56.963L118,56.963L117.758,51.002L-25.323,51.055L-24.627,56.963Z"
            fill="#414B59"
          />
        </g>
        <g transform="matrix(0.61832,-0.785926,-0.785926,-0.61832,1830.17,736.497)">
          <path
            d="M-24.877,57.187L118.005,57.187L117.753,51.225L-25.328,51.479L-24.877,57.187Z"
            fill="#2D3847"
          />
        </g>
        <g transform="matrix(0.619123,-0.785294,-0.785294,-0.619123,1787.71,698.321)">
          <path
            d="M-24.688,56.863L117.485,56.863L116.986,50.7L-24.932,50.902L-24.688,56.863Z"
            fill="#999EA6"
          />
        </g>
      </g>
    </svg>